<mxfile compressed="false" type="device">
    <diagram id="Page-1" name="Page-1">
      <mxGraphModel arrows="1" connect="1" dx="1360" dy="864" fold="1" grid="1" gridSize="10" guides="1" math="0" page="1" pageHeight="1169" pageScale="1" pageWidth="827" shadow="1" tooltips="1">
        <root>
          <mxCell id="0" />   
          <mxCell id="1" parent="0" />
        <object id="node-1" label="node-1">
      <mxCell parent="1" style="rounded=1;whiteSpace=wrap;html=1;strokeColor=#C0C0C0;fontColor=#C0C0C0" vertex="1">
          <mxGeometry as="geometry" height="60" width="120" x="464" y="814" />
      </mxCell>
    </object><object id="node-2" label="node-2">
      <mxCell parent="1" style="rounded=1;whiteSpace=wrap;html=1;" vertex="1">
          <mxGeometry as="geometry" height="60" width="120" x="919" y="456" />
      </mxCell>
    </object><object id="node-3" label="node-3">
      <mxCell parent="1" style="rounded=1;whiteSpace=wrap;html=1;" vertex="1">
          <mxGeometry as="geometry" height="60" width="120" x="739" y="630" />
      </mxCell>
    </object><object a="b" c="d" id="node-4" label="node-4" link="http://google.com">
      <mxCell parent="1" style="rounded=1;whiteSpace=wrap;html=1;" vertex="1">
          <mxGeometry as="geometry" height="60" width="120" x="1081" y="627" />
      </mxCell>
    </object><object id="node-55" label="node-55">
      <mxCell parent="1" style="shape=mxgraph.cisco.routers.atm_tag_switch_router;html=1;pointerEvents=1;dashed=0;fillColor=#C0C0C0;strokeColor=#ffffff;strokeWidth=2;verticalLabelPosition=bottom;verticalAlign=top;align=center;outlineConnect=0;fontColor=#C0C0C0" vertex="1">
          <mxGeometry as="geometry" height="82" width="64" x="498" y="572" />
      </mxCell>
    </object><object id="b35ebf8a6eeb7084dd9f3e14ec85eb9c" label="bla1" source="node-1" target="node-2">
      <mxCell edge="1" parent="1" source="node-1" style="endArrow=none;strokeColor=#C0C0C0;fontColor=#C0C0C0" target="node-2">
          <mxGeometry as="geometry" relative="1" />
      </mxCell>
    </object><object id="601d1f4fe959524564b9139bfd9ee1c5" label="bla2" source="node-2" target="node-3">
      <mxCell edge="1" parent="1" source="node-2" style="endArrow=none;" target="node-3">
          <mxGeometry as="geometry" relative="1" />
      </mxCell>
    </object><object id="03d64cf220b7cea506298c06d433f38e" label="bla3" source="node-3" target="node-1">
      <mxCell edge="1" parent="1" source="node-3" style="endArrow=none;strokeColor=#C0C0C0;fontColor=#C0C0C0" target="node-1">
          <mxGeometry as="geometry" relative="1" />
      </mxCell>
    </object><object id="d5fa69cbdbc6ae606177e052dcdf4fdc" label="bla4" source="node-4" target="node-3">
      <mxCell edge="1" parent="1" source="node-4" style="endArrow=none;" target="node-3">
          <mxGeometry as="geometry" relative="1" />
      </mxCell>
    </object><object id="299941cec59a8e3bc7707b171169b897" label="bla155" source="node-55" target="node-1">
      <mxCell edge="1" parent="1" source="node-55" style="endArrow=none;strokeColor=#C0C0C0;fontColor=#C0C0C0" target="node-1">
          <mxGeometry as="geometry" relative="1" />
      </mxCell>
    </object><object id="node-99" label="node-99">
      <mxCell parent="1" style="rounded=1;whiteSpace=wrap;html=1;strokeColor=#00FF00;fontColor=#00FF00" vertex="1">
          <mxGeometry as="geometry" height="60" width="120" x="1023" y="116" />
      </mxCell>
    </object><object id="node-100" label="node-100">
      <mxCell parent="1" style="shape=mxgraph.cisco.routers.atm_router;html=1;pointerEvents=1;dashed=0;fillColor=#00FF00;strokeColor=#ffffff;strokeWidth=2;verticalLabelPosition=bottom;verticalAlign=top;align=center;outlineConnect=0;fontColor=#00FF00" vertex="1">
          <mxGeometry as="geometry" height="53" width="78" x="1137" y="443" />
      </mxCell>
    </object><object id="ce6c5017ca752fe1c66f8521571d2471" label="bla99" source="node-99" target="node-3">
      <mxCell edge="1" parent="1" source="node-99" style="endArrow=none;strokeColor=#00FF00;fontColor=#00FF00" target="node-3">
          <mxGeometry as="geometry" relative="1" />
      </mxCell>
    </object><object id="83580276a63a08fd60925e931c0a89b8" label="bla10099" source="node-100" target="node-99">
      <mxCell edge="1" parent="1" source="node-100" style="endArrow=none;strokeColor=#00FF00;fontColor=#00FF00" target="node-99">
          <mxGeometry as="geometry" relative="1" />
      </mxCell>
    </object></root>
      </mxGraphModel>
    </diagram></mxfile>